<svg xmlns="http://www.w3.org/2000/svg" version="1.1" xmlns:xlink="http://www.w3.org/1999/xlink" xmlns:svgjs="http://svgjs.dev/svgjs" width="100%" height="100%" viewBox="0 0 1000 600"><rect width="1000" height="600" x="0" y="0" fill="#00beef"/><g><circle r="166.66666666666666" cx="339.7901255289713" cy="362.0123244654486" fill="#00be" transform="matrix(0.7220281092688008,0,0,0.7220281092688008,0,38.616910575419396)"/><path d="M251.9292173039672 389.8117985090986L199.25656634007146 389.8117985090986L199.25656634007146 378.01897720995964L251.9292173039672 378.01897720995964L251.9292173039672 389.8117985090986ZM306.29909813225515 437.01234628952295L306.29909813225515 430.28195199969184L326.5195435856174 430.28195199969184Q332.1964848561705 430.28195199969184 332.1964848561705 424.5757481452698L332.1964848561705 424.5757481452698L332.1964848561705 298.8051626770343Q332.1964848561705 295.84964170628234 330.9381937498108 294.47430026444727Q329.6799026434511 293.0989588226122 326.5195435856174 293.0989588226122L326.5195435856174 293.0989588226122L318.94053436359013 293.0989588226122Q305.65532128714085 293.0989588226122 295.96940602655786 306.5890099861433L295.96940602655786 306.5890099861433Q289.85352599797216 315.22147222744843 287.7466199594163 328.1847968813406Q285.63971392086046 341.1481215352327 285.63971392086046 347.2640015638184L285.63971392086046 347.2640015638184L279.7286719793566 347.2640015638184L281.4259018437489 287.0123413778954L402.36816097362725 287.0123413778954L404.03612825415064 347.2640015638184L398.15434889651556 347.2640015638184Q398.15434889651556 341.1481215352327 396.0474428579597 328.1847968813406Q393.94053681940386 315.22147222744843 387.82465679081827 306.5890099861433L387.82465679081827 306.5890099861433Q378.13874153023517 293.0989588226122 364.8535284537859 293.0989588226122L364.8535284537859 293.0989588226122L357.27451923175875 293.0989588226122Q354.11416017392503 293.0989588226122 352.8558690675652 294.47430026444727Q351.5975779612055 295.84964170628234 351.5975779612055 298.8051626770343L351.5975779612055 298.8051626770343L351.5975779612055 424.5757481452698Q351.5975779612055 430.28195199969184 357.27451923175875 430.28195199969184L357.27451923175875 430.28195199969184L377.494964685121 430.28195199969184L377.494964685121 437.01234628952295L306.29909813225515 437.01234628952295ZM480.323684400193 389.8117985090986L427.6510334362972 389.8117985090986L427.6510334362972 378.01897720995964L480.323684400193 378.01897720995964L480.323684400193 389.8117985090986Z " fill="#e2d1f9" transform="matrix(0.7220281092688008,0,0,0.7220281092688008,0,38.616910575419396)"/><path d="M615.92212406528 434.5372869227466L615.92212406528 427.9179468024431L635.8089241658439 427.9179468024431Q641.3921936586217 427.9179468024431 641.3921936586217 422.3058975700119L641.3921936586217 422.3058975700119L641.3921936586217 298.6105765392971Q641.3921936586217 295.7038228342942 640.1546648535215 294.35117507058Q638.9171360484213 292.9985273068658 635.8089241658439 292.9985273068658L635.8089241658439 292.9985273068658L628.3549715955892 292.9985273068658Q615.2889697929032 292.9985273068658 605.7628759675969 306.26598728712634L605.7628759675969 306.26598728712634Q599.7479103800167 314.75601048490694 597.6757691249651 327.5054351514045Q595.6036278699136 340.2548598179021 595.6036278699136 346.26982540548215L595.6036278699136 346.26982540548215L589.7901204599079 346.26982540548215L591.4593453598105 287.0123414589392L710.406009347699 287.0123414589392L712.046454507948 346.26982540548215L706.2617268375959 346.26982540548215Q706.2617268375959 340.2548598179021 704.1895855825444 327.5054351514045Q702.1174443274929 314.75601048490694 696.1024787399127 306.26598728712634L696.1024787399127 306.26598728712634Q686.5763849146065 292.9985273068658 673.5103831119204 292.9985273068658L673.5103831119204 292.9985273068658L666.0564305416656 292.9985273068658Q662.9482186590883 292.9985273068658 661.7106898539881 294.35117507058Q660.4731610488878 295.7038228342942 660.4731610488878 298.6105765392971L660.4731610488878 298.6105765392971L660.4731610488878 422.3058975700119Q660.4731610488878 427.9179468024431 666.0564305416656 427.9179468024431L666.0564305416656 427.9179468024431L685.9432306422295 427.9179468024431L685.9432306422295 434.5372869227466L615.92212406528 434.5372869227466ZM770.4981057441933 437.01234453294705Q755.3599626864558 437.01234453294705 749.0571997023408 427.6877088852151Q742.7256569785721 418.36307323748326 742.7256569785721 405.3258511744507L742.7256569785721 405.3258511744507L742.7256569785721 349.57949546563395Q742.7256569785721 347.1044378554335 741.6895863510464 346.06836722790774Q740.6535157235206 345.032296600382 738.1784581133202 345.032296600382L738.1784581133202 345.032296600382L729.4581969983117 345.032296600382L729.4581969983117 340.0534016403276L757.6335621190817 340.0534016403276L757.6335621190817 409.2686755069793Q757.6335621190817 418.36307323748326 761.2598093154219 424.80973491986583Q764.886056511762 431.2276168625948 773.6063176267705 431.2276168625948L773.6063176267705 431.2276168625948Q780.858812019451 431.2276168625948 786.5572004708426 426.13360294392646Q792.2555889222343 421.0683687649116 795.4501400237721 412.26176843094265Q798.6734708649634 403.4551680969737 798.6734708649634 392.69154546656716L798.6734708649634 392.69154546656716L798.6734708649634 349.57949546563395Q798.6734708649634 347.1044378554335 797.6374002374376 346.06836722790774Q796.6013296099119 345.032296600382 794.1262719997114 345.032296600382L794.1262719997114 345.032296600382L785.4060108847029 345.032296600382L785.4060108847029 340.0534016403276L813.581376005473 340.0534016403276L813.581376005473 425.01119309744024Q813.581376005473 427.4862507076407 814.6174466329987 428.52232133516645Q815.6535172605245 429.5583919626922 818.1573546103784 429.5583919626922L818.1573546103784 429.5583919626922L826.8488359857334 429.5583919626922L826.8488359857334 434.5372869227466L798.6734708649634 434.5372869227466L798.6734708649634 417.5572405271855L797.838858415012 417.3270026099575Q793.0902013721857 427.2847925300663 786.0391651570798 432.1485685315066Q778.9881289419739 437.01234453294705 770.4981057441933 437.01234453294705L770.4981057441933 437.01234453294705ZM874.5080848519185 434.5372869227466L874.5080848519185 427.9179468024431L894.3948849524826 427.9179468024431Q900.0069341849138 427.9179468024431 900.0069341849138 422.3058975700119L900.0069341849138 422.3058975700119L900.0069341849138 298.6105765392971Q900.0069341849138 295.7038228342942 898.7694053798136 294.35117507058Q897.5030968350599 292.9985273068658 894.3948849524826 292.9985273068658L894.3948849524826 292.9985273068658L886.9409323822279 292.9985273068658Q873.9037103191953 292.9985273068658 864.3488367542354 306.26598728712634L864.3488367542354 306.26598728712634Q858.3626509063088 314.75601048490694 856.2905096512573 327.5054351514045Q854.2183683962057 340.2548598179021 854.2183683962057 346.26982540548215L854.2183683962057 346.26982540548215L848.4048609862 346.26982540548215L850.0740858861027 287.0123414589392L968.9919701343376 287.0123414589392L970.6611950342402 346.26982540548215L964.8476876242346 346.26982540548215Q964.8476876242346 340.2548598179021 962.7755463691831 327.5054351514045Q960.7034051141316 314.75601048490694 954.7172192662048 306.26598728712634L954.7172192662048 306.26598728712634Q945.1623457012449 292.9985273068658 932.1251236382125 292.9985273068658L932.1251236382125 292.9985273068658L924.6711710679577 292.9985273068658Q921.5629591853804 292.9985273068658 920.2966506406267 294.35117507058Q919.0591218355264 295.7038228342942 919.0591218355264 298.6105765392971L919.0591218355264 298.6105765392971L919.0591218355264 422.3058975700119Q919.0591218355264 427.9179468024431 924.6711710679577 427.9179468024431L924.6711710679577 427.9179468024431L944.5579711685216 427.9179468024431L944.5579711685216 434.5372869227466L874.5080848519185 434.5372869227466ZM1018.7233602555743 437.01234453294705Q1007.3265833527907 437.01234453294705 997.8004895274845 430.2778854540296Q988.2743957021783 423.54342637511206 982.777465428361 412.1466494723287Q977.2805351545437 400.74987256954523 977.2805351545437 387.28095441171035L977.2805351545437 387.28095441171035Q977.2805351545437 373.81203625387536 982.777465428361 362.415259351092Q988.2743957021783 351.01848244830865 997.8004895274845 344.2840233693911Q1007.3265833527907 337.54956429047365 1018.7233602555743 337.54956429047365L1018.7233602555743 337.54956429047365Q1030.120137158358 337.54956429047365 1039.6750107233174 344.2840233693911Q1049.2011045486238 351.01848244830865 1054.698034822441 362.415259351092Q1060.1661853566047 373.81203625387536 1060.1661853566047 387.28095441171035L1060.1661853566047 387.28095441171035Q1060.1661853566047 400.74987256954523 1054.698034822441 412.1466494723287Q1049.2011045486238 423.54342637511206 1039.6750107233174 430.2778854540296Q1030.120137158358 437.01234453294705 1018.7233602555743 437.01234453294705L1018.7233602555743 437.01234453294705ZM1018.7233602555743 432.06222931254615Q1031.1562077858835 432.06222931254615 1036.5667988407404 420.3488752735743Q1041.9486101559437 408.6355212346025 1041.9486101559437 387.28095441171035L1041.9486101559437 387.28095441171035Q1041.9486101559437 365.9551673284717 1036.5667988407404 354.2418132894999Q1031.1562077858835 342.52845925052804 1018.7233602555743 342.52845925052804L1018.7233602555743 342.52845925052804Q1006.2905127252651 342.52845925052804 1000.9087014100618 354.2418132894999Q995.5268900948586 365.9551673284717 995.5268900948586 387.28095441171035L995.5268900948586 387.28095441171035Q995.5268900948586 408.6355212346025 1000.9087014100618 420.3488752735743Q1006.2905127252651 432.06222931254615 1018.7233602555743 432.06222931254615L1018.7233602555743 432.06222931254615ZM1190.3081680697023 437.01234453294705Q1183.4585900321708 437.01234453294705 1178.7962722083048 434.738745100321Q1174.1339543844388 432.4651456676951 1171.457438596664 427.2847925300663L1171.457438596664 427.2847925300663Q1165.8453893642327 416.52116989965975 1165.442473009084 390.61940421151564L1165.442473009084 390.61940421151564Q1165.2410148315093 376.71878995887823 1160.4635780490294 367.50927326976034Q1155.714921006203 358.27097684098896 1145.1239768137175 358.27097684098896L1145.1239768137175 358.27097684098896L1122.5606609253787 358.27097684098896L1122.5606609253787 422.3058975700119Q1122.5606609253787 425.21265127501476 1123.798189730479 426.5652990387289Q1125.0357185355792 427.9179468024431 1128.1439304181563 427.9179468024431L1128.1439304181563 427.9179468024431L1146.5917435360457 427.9179468024431L1146.5917435360457 434.5372869227466L1082.959739162172 434.5372869227466L1082.959739162172 427.9179468024431L1097.8964240423347 427.9179468024431Q1103.4796935351123 427.9179468024431 1103.4796935351123 422.3058975700119L1103.4796935351123 422.3058975700119L1103.4796935351123 299.2149510720204Q1103.4796935351123 296.33697710667104 1102.1270457713981 294.98432934295687Q1100.8031777473375 293.6316815792427 1097.8964240423347 293.6316815792427L1097.8964240423347 293.6316815792427L1082.959739162172 293.6316815792427L1082.959739162172 287.0123414589392L1150.937484223723 287.0123414589392Q1171.0257425018617 287.0123414589392 1183.8902861269735 294.66775220676845Q1196.7260500124312 302.3231629545977 1196.7260500124312 320.16660153976363L1196.7260500124312 320.16660153976363Q1196.7260500124312 335.47742303542213 1185.2429338906873 344.802058683154Q1173.7310380292902 354.1266943308859 1157.5568243440266 355.7959192307885L1157.5568243440266 355.7959192307885L1157.5568243440266 356.63053168073986Q1169.3852973416124 358.9041311133658 1176.9543688704812 367.50927326976034Q1184.4946606596964 376.1144154261549 1186.9984980095505 396.8358279766702L1186.9984980095505 396.8358279766702Q1188.437484992225 408.6355212346025 1189.588674578365 414.0173325498058Q1190.711084424851 419.399143865009 1192.4954282833678 421.5864040786745Q1194.250992402231 423.7736642923401 1197.7621206399572 423.7736642923401L1197.7621206399572 423.7736642923401Q1206.6838399325402 423.7736642923401 1206.6838399325402 401.3830268419222L1206.6838399325402 401.3830268419222L1211.8641930701688 401.3830268419222Q1211.8641930701688 414.85194499975705 1207.92136873764 425.93214476635205Q1203.9785444051117 437.01234453294705 1190.3081680697023 437.01234453294705L1190.3081680697023 437.01234453294705ZM1122.5606609253787 351.6516367206855L1142.648919203517 351.6516367206855Q1160.0606616938808 351.6516367206855 1167.3994953055212 343.24795274186533Q1174.7671086568157 334.8730485026988 1174.7671086568157 320.16660153976363L1174.7671086568157 320.16660153976363Q1174.7671086568157 307.5035160922265 1168.0326495778982 300.5675988357346Q1161.298190498981 293.6316815792427 1149.6999554186232 293.6316815792427L1149.6999554186232 293.6316815792427L1128.1439304181563 293.6316815792427Q1125.2371767131535 293.6316815792427 1123.8845289494393 294.98432934295687Q1122.5606609253787 296.33697710667104 1122.5606609253787 299.2149510720204L1122.5606609253787 299.2149510720204L1122.5606609253787 351.6516367206855Z " fill="#000000" transform="matrix(0.7220281092688008,0,0,0.7220281092688008,0,38.616910575419396)"/></g></svg>